inDegrees=no
num_controls=7
num_derivatives=13
num_iterations=73
num_multipliers=7
num_parameters=0
num_slacks=7
num_states=26
objective=0.258118
objective_accelerations=0.024619
objective_balance=0.002353
objective_effort=0.043948
objective_height=0.185752
objective_ligament=0.001446
solver_duration=756.591572
status=Solve_Succeeded
success=true
DataType=double
version=3
OpenSimVersion=4.5
endheader
time	/jointset/ground_pelvis/pelvis_tilt/value	/jointset/ground_pelvis/pelvis_tx/value	/jointset/ground_pelvis/pelvis_ty/value	/jointset/hip_r/hip_flexion_r/value	/jointset/hip_r/hip_adduction_r/value	/jointset/hip_r/hip_rotation_r/value	/jointset/back/lumbar_extension/value	/jointset/patellofemoral_r/patellar_flexion_r/value	/jointset/knee_r/knee_flexion_r/value	/jointset/knee_r/knee_adduction_r/value	/jointset/knee_r/knee_rotation_r/value	/jointset/ankle_r/ankle_angle_r/value	/jointset/subtalar_r/subtalar_angle_r/value	/jointset/ground_pelvis/pelvis_tilt/speed	/jointset/ground_pelvis/pelvis_tx/speed	/jointset/ground_pelvis/pelvis_ty/speed	/jointset/hip_r/hip_flexion_r/speed	/jointset/hip_r/hip_adduction_r/speed	/jointset/hip_r/hip_rotation_r/speed	/jointset/back/lumbar_extension/speed	/jointset/patellofemoral_r/patellar_flexion_r/speed	/jointset/knee_r/knee_flexion_r/speed	/jointset/knee_r/knee_adduction_r/speed	/jointset/knee_r/knee_rotation_r/speed	/jointset/ankle_r/ankle_angle_r/speed	/jointset/subtalar_r/subtalar_angle_r/speed	/forceset/tau_hip_flexion_r	/forceset/tau_hip_adduction_r	/forceset/tau_hip_rotation_r	/forceset/tau_knee_flexion_r	/forceset/tau_ankle_angle_r	/forceset/tau_subtalar_angle_r	/forceset/tau_lumbar_extension	lambda_cid13_p0	lambda_cid14_p0	lambda_cid14_p1	lambda_cid14_p2	lambda_cid14_p3	lambda_cid14_p4	lambda_cid14_p5	/jointset/ground_pelvis/pelvis_tilt/accel	/jointset/ground_pelvis/pelvis_tx/accel	/jointset/ground_pelvis/pelvis_ty/accel	/jointset/hip_r/hip_flexion_r/accel	/jointset/hip_r/hip_adduction_r/accel	/jointset/hip_r/hip_rotation_r/accel	/jointset/back/lumbar_extension/accel	/jointset/patellofemoral_r/patellar_flexion_r/accel	/jointset/knee_r/knee_flexion_r/accel	/jointset/knee_r/knee_adduction_r/accel	/jointset/knee_r/knee_rotation_r/accel	/jointset/ankle_r/ankle_angle_r/accel	/jointset/subtalar_r/subtalar_angle_r/accel	gamma_cid13_p0	gamma_cid14_p0	gamma_cid14_p1	gamma_cid14_p2	gamma_cid14_p3	gamma_cid14_p4	gamma_cid14_p5
1.5	-0.2235951891986057	-0.03646972988756901	0.5571718896717828	1.629493654607288	-0.2428053344356469	-0.007425669313001332	-0.7665955672030219	1.717632693098468	1.717632693098467	-0.1501806187685002	0.1739665347349225	0.432582268397187	0.1635083800099769	0.5028645363914658	0.09406195966914957	1.106292982059136	-3.183783619330401	0.03249590718405451	-0.4966868995243242	0.3212547548766267	-2.743554313940094	-2.74355431394011	0.3083256986748875	0.007744420887343506	-0.1546409568073394	-0.002951479585057537	-0.3851895657986139	-0.005667747630047834	0.009900707148125512	-0.5344577287630661	0.04488354347252187	0.001390270270067095	0.4206574042902222	-0.04056429542679355	-40.10491941104491	-9.949816119571945	6.042062589888194	-15.60019399573253	-820.5316915783058	84.23279395089178	2.818330380687999	1.504397553331506	2.181146911382584	-7.407457480479207	0.6879486143197411	0.7004731409555183	3.47528605530424	-7.798126836305092	-7.798126836305097	2.427811041043726	-0.05877546941369433	-3.588120100462716	-0.5006088828311138	2.222141404992548e-07	-3.218830149030685e-07	-1.484137739024398e-06	-5.148139664377467e-07	1.095469084819462e-06	1.077766153596971e-07	2.63215627160467e-07
1.51	-0.218426565239197	-0.03545328082360728	0.5683405512328188	1.597291918373238	-0.2424477775665686	-0.01235966659870303	-0.7632064470806245	1.689809598657017	1.689809598657017	-0.1469763124003393	0.1740438963858034	0.4308527277115134	0.163448677545861	0.5307659250279128	0.109283287802986	1.127128028837171	-3.256028024636367	0.03896966023000751	-0.4901283666748838	0.3568292674900823	-2.820881729174793	-2.820881729174781	0.3325505938631809	0.007682567444707873	-0.19156627272994	-0.009217024276139466	-0.3770977924514692	-0.004885584892513355	0.01126153451716842	-0.5249486539261882	0.04346459101716696	0.0021159656868946	0.4135029966806492	-0.04098757604376616	-39.78244253084382	-9.371801082351986	5.714172026212824	-15.39545619341286	-809.8388309198774	83.71387699037913	2.761885994425362	1.53956645432728	1.988034242970319	-7.052610583738808	0.6199711647757599	0.6313825336107773	3.637533547466902	-7.672630677072532	-7.672630677068249	2.421866070344263	0.01284763146028092	-3.789587918532683	-0.7243010698802351	1.03887616719121e-07	-4.634396738596193e-07	-2.149950825865595e-06	-1.226277864214988e-06	1.200129023467718e-06	1.880433889822979e-07	-1.559542914330884e-06
1.52	-0.2129817588155634	-0.03428290527612364	0.5797082333980265	1.564383802380513	-0.2420269066640222	-0.01722851072057581	-0.7594537818954725	1.661218713701215	1.661218713701216	-0.1435293496177709	0.1741191870848877	0.428744963750539	0.1633193648733077	0.5581010292364526	0.1248472563735316	1.146097102893465	-3.325059571065674	0.04515871387766788	-0.483656266758544	0.3939637674275656	-2.897112416810303	-2.897112416810263	0.356856981556359	0.007330230528023333	-0.2302856118674985	-0.01687352127256153	-0.3690060191043242	-0.004103422154978853	0.01262236188621073	-0.5154395790893103	0.04204563856181187	0.002841661103722079	0.4063485890710763	-0.04137031581164007	-39.48593593727707	-8.785039339111851	5.369704350426168	-15.17269912082045	-799.5613886288866	83.31744326795472	2.705073495106588	1.572925640673341	1.807952367034361	-6.764885705147268	0.6310087346612171	0.683186554335412	3.787283520109782	-7.578781316467391	-7.57878131646741	2.444109542020669	-0.1168721642234777	-3.946924743454288	-0.7787993438991391	-9.805102001762894e-09	-6.076423836361801e-07	-2.874402656734763e-06	-1.981367670259276e-06	1.304247066054231e-06	2.659543570526964e-07	-3.325285398934597e-06
1.53	-0.2072666652542559	-0.03295513456026306	0.5912560309845639	1.53080105973894	-0.2415459737824875	-0.02203376525796336	-0.7553221713306481	1.631871440796641	1.631871440796639	-0.1398392848808714	0.17419007166995	0.4262421333085561	0.1631064443902818	0.5847704282168105	0.1407645767769054	1.163121228343094	-3.390944816714137	0.05094631472984322	-0.4773198956931105	0.4326325750083507	-2.972100184962666	-2.972100184962657	0.3812854313557535	0.006829368186968434	-0.2704819051111045	-0.02594640102568032	-0.3595634684765273	-0.003685024334102485	0.01380276928353854	-0.5046076126631036	0.04121763163049022	0.0034438553266672	0.3979091977698025	-0.04172189668285432	-38.88200342267831	-8.20814197846366	5.038292098653578	-15.2860012304407	-787.493493235799	82.6059648635356	2.625720391283647	1.610081381131118	1.598541069727166	-6.418798935755446	0.5399458019353002	0.6201924467183859	3.947813797733138	-7.422442332446432	-7.422442332451115	2.461442919017384	-0.02021229471473847	-4.086167297924115	-1.007917168453612	-1.185744028471936e-07	-7.546565224090014e-07	-3.661158153133648e-06	-2.782810003837301e-06	1.407789344075142e-06	3.4136228172388e-07	-5.030448323095193e-06
1.54	-0.2012893082447882	-0.03146640141217637	0.6029638495127577	1.49657577365267	-0.2410097028841431	-0.02677339007188234	-0.7507956458058818	1.601781556656977	1.601781556656974	-0.135901089601954	0.1742552438264681	0.4233313027975153	0.1627955181342376	0.6105537188684983	0.157039742818754	1.178101291224723	-3.453568260004984	0.05622631723960298	-0.4705303220648342	0.4729467594159459	-3.045634663828058	-3.045634663828079	0.40648308995989	0.006187744819183803	-0.3118856256791248	-0.0364746758762137	-0.3501209178487299	-0.003266626513226049	0.01498317668086581	-0.4937756462368971	0.04038962469916841	0.004046049549612382	0.3894698064685289	-0.0420522278565002	-38.30263483593067	-7.623856517714758	4.692354947025311	-15.36357163355683	-775.8061354277013	82.0035633549344	2.527851829372586	1.644494768368285	1.39913985343419	-6.112525233623943	0.5294890661781047	0.7738270669039753	4.11635888547177	-7.288123459073151	-7.288123459073144	2.597951302969067	-0.1450243695694259	-4.188410208337124	-1.069878363382057	-2.137901946706458e-07	-8.822067116680981e-07	-4.396087635566462e-06	-3.500061180034363e-06	1.492307994853985e-06	4.105556088253668e-07	-6.51341973520759e-06
1.55	-0.1950586442441307	-0.02981309600060888	0.6148110375118608	1.461740051517208	-0.2404234731263158	-0.03144524225305153	-0.7458582322306891	1.570963915512377	1.570963915512375	-0.1317092164952681	0.1743136143151906	0.4200015080964471	0.1623722573131993	0.6353864714484668	0.1736800632323682	1.190966861959778	-3.513025969933838	0.06091049534895948	-0.4638770507202223	0.5148038595212627	-3.117602656763887	-3.117602656763892	0.4319241233140889	0.005483600414483372	-0.3541762373732252	-0.04839405443599491	-0.3393016137775072	-0.003226226428048773	0.0159030171661019	-0.4817746979294549	0.04029766656411932	0.004517619552664409	0.379676804700071	-0.04236753759195368	-37.37029132724712	-7.048568918572636	4.363918843558818	-15.80224800593867	-762.3308285623086	81.09819576844443	2.43198676338364	1.682927175695031	1.174950098411946	-5.779984286594487	0.4208838690007481	0.6055736030509015	4.260571157878679	-7.107433439217583	-7.107433439215099	2.521850406089223	-0.03479482674566289	-4.264775761965224	-1.286824711560656	-2.933899869687756e-07	-9.873310460526872e-07	-5.071304536690547e-06	-4.120309500988147e-06	1.554908118593054e-06	4.725886387269858e-07	-7.740387883438383e-06
1.56	-0.1885854527594587	-0.02799156208533781	0.6267758181012887	1.426326234199641	-0.2397938012502577	-0.03605166243381231	-0.74049421053748	1.539435335192743	1.539435335192742	-0.1272619988441513	0.1743646062897011	0.4162457294560342	0.1618230312847063	0.6590592156714215	0.1906854435594705	1.201619809289669	-3.569187296425822	0.06491474088576905	-0.4574439219831661	0.5582683830192612	-3.187822498834906	-3.187822498834895	0.457551998846045	0.004712041976770476	-0.3970824135480747	-0.06166771736715635	-0.3284823097062842	-0.003185826342871302	0.01682285765133691	-0.469773749622013	0.04020570842907014	0.004989189555716768	0.3698838029316133	-0.04272125814882737	-36.4594636420479	-6.467155951965117	4.023213841258244	-16.19191979739771	-749.1755246466244	80.28750386820367	2.295850157969826	1.717506751065914	0.9566151724014446	-5.453248546249739	0.3935025516687215	0.7297985453928462	4.437843564008086	-6.938493286111122	-6.938493286111132	2.635319738520521	-0.1585071761719211	-4.311523104486932	-1.340735237658103	-3.58696880791382e-07	-1.07380970906859e-06	-5.710447602998488e-06	-4.672293340499623e-06	1.601940445507323e-06	5.31077013350458e-07	-8.771231351357586e-06
1.57	-0.1818813809369584	-0.02599814084060673	0.6388358669975742	1.390366818483981	-0.2391276225077066	-0.04059655499861269	-0.7346880644335506	1.507213656893568	1.507213656893567	-0.122559153682382	0.1744078291140153	0.412058898787708	0.1611348647955852	0.6815185681663651	0.2080564170868656	1.209992086737209	-3.622127671952423	0.06819619971882307	-0.4516474002609924	0.6032191448909664	-3.256163530420292	-3.256163530420287	0.4829784108260725	0.003937942539213543	-0.4402889813829584	-0.07613791158763086	-0.3164109641163645	-0.003526955386565855	0.01745180495640922	-0.4567019113959953	0.04081289292583189	0.005349361138112134	0.3587950662008993	-0.04307166772366373	-35.21120158851377	-5.888053648630596	3.697732118918556	-16.9152977017315	-734.2947378380275	79.2011123456339	2.185349718170428	1.755863486225	0.7179747981270763	-5.129357280553869	0.2759736723284331	0.4876421473989667	4.562438567415577	-6.72937681738378	-6.729376817384766	2.49020493947455	-0.03757716568393304	-4.325934533915911	-1.527683252836056	-4.061376515195844e-07	-1.136981282873635e-06	-6.304498375786248e-06	-5.13894657820821e-06	1.62951302639059e-06	5.851345688762466e-07	-9.556918968887301e-06
1.58	-0.174959841204926	-0.02382921569407194	0.6509677268217743	1.353895013968117	-0.2384325279521839	-0.04508686971383739	-0.7284246614971713	1.474319074534013	1.474319074534011	-0.1176032637984663	0.1744431677763267	0.4074398602588476	0.1602964920165406	0.70255279757786	0.2257862239202144	1.215981994872622	-3.671665056466568	0.07069790348006477	-0.4465283520680457	0.6497197495092252	-3.322403310910937	-3.32240331091094	0.5081609432753272	0.003135209576202473	-0.4835239856549152	-0.09170897535186268	-0.3043396185264446	-0.003868084430260193	0.01808075226148114	-0.4436300731699775	0.04142007742259353	0.005709532720507852	0.3477063294701854	-0.04343282596697538	-33.97974725501156	-5.30426044617762	3.362792815320059	-17.57904439326594	-719.6453885923374	78.19321806145787	2.010825541280065	1.789273412256657	0.480141309975929	-4.772650343758372	0.2375515373062606	0.5943038395474194	4.747812113318837	-6.518243067163096	-6.518243067163129	2.586543832365958	-0.1642338812627503	-4.317210391901555	-1.560909146409561	-4.238540214078963e-07	-1.165292311194831e-06	-6.842983890698984e-06	-5.456700025603238e-06	1.636308247697032e-06	6.355410752243029e-07	-1.004607829204486e-05
1.59	-0.1678349255982673	-0.02148122303434448	0.6631474092191986	1.316944300709791	-0.2377166241384273	-0.0495288774761521	-0.7216894006269479	1.440773185855694	1.440773185855694	-0.1123957657713868	0.1744709231781809	0.4023892910298707	0.159297079085909	0.7221630744675722	0.2438651226775663	1.219529571903051	-3.717888175203443	0.07232704973164197	-0.4418999714611105	0.6975548584776109	-3.386338212098049	-3.386338212098053	0.5334185611298288	0.002431027084488434	-0.5265065220565247	-0.1083348074755365	-0.2910924859470742	-0.004559908180743888	0.01843391456829833	-0.429661017234884	0.04272916240191172	0.005933351503273699	0.3353217875367537	-0.04379047574522334	-32.41979023676902	-4.742417747401104	3.054473930369012	-18.5271523602775	-703.3390733679179	76.88859632585195	1.895893645349293	1.825440735423829	0.2284706091717868	-4.458886114298651	0.1013648862163437	0.3931228352545327	4.834725379931195	-6.265604196843914	-6.265604196844215	2.506877470957806	-0.02283194668120885	-4.27615079407514	-1.739448294662615	-4.012301330135021e-07	-1.146292599216519e-06	-7.306059412781334e-06	-5.572375186144161e-06	1.614905623863499e-06	6.809925862597228e-07	-1.013280635855452e-05
